<svg width="140" height="140" viewBox="0 0 140 140" fill="none" xmlns="http://www.w3.org/2000/svg">
<circle cx="70" cy="70" r="70" fill="#1D1D1D"/>
<path d="M69.8045 47.0297C69.8045 34.4917 62.3008 26.8923 52.1556 26.8923C41.9721 26.8923 34.4876 34.4917 34.4876 47.0297C34.4876 59.5485 41.9721 67.167 52.1556 67.167C62.3008 67.167 69.8045 59.5676 69.8045 47.0297ZM63.947 47.0297C63.947 56.5815 58.8935 61.769 52.1556 61.769C45.3985 61.769 40.3641 56.5815 40.3641 47.0297C40.3641 37.4778 45.3985 32.2904 52.1556 32.2904C58.8935 32.2904 63.947 37.4778 63.947 47.0297ZM46.5278 22.8151C48.442 22.8151 49.8968 21.2646 49.8968 19.4844C49.8968 17.5893 48.442 16.1345 46.5278 16.1345C44.7285 16.1345 43.1397 17.5893 43.1397 19.4844C43.1397 21.2646 44.7285 22.8151 46.5278 22.8151ZM57.7833 22.8151C59.6975 22.8151 61.1523 21.2646 61.1523 19.4844C61.1523 17.5893 59.6975 16.1345 57.7833 16.1345C55.984 16.1345 54.3952 17.5893 54.3952 19.4844C54.3952 21.2646 55.984 22.8151 57.7833 22.8151Z" fill="white"/>
<path d="M81.2217 66.631H104.9V61.5393H87.1365V27.4283H81.2217V66.631Z" fill="white"/>
<path d="M40.5598 113.797L44.1585 103.422H59.4721L63.0516 113.797H69.3302L55.2225 74.5941H48.3889L34.2812 113.797H40.5598ZM45.8813 98.445L51.6621 81.7149H51.9684L57.7493 98.445H45.8813Z" fill="white"/>
<path d="M80.5315 113.797H95.5579C104.67 113.797 108.785 109.26 108.785 103.25C108.785 97.1816 104.536 93.7552 100.65 93.5446V93.1618C104.248 92.243 107.254 89.7928 107.254 84.8925C107.254 79.0924 103.234 74.5941 94.888 74.5941H80.5315V113.797ZM86.4464 108.724V96.1671H95.1942C99.9414 96.1671 102.908 99.2298 102.908 102.962C102.908 106.255 100.669 108.724 94.9837 108.724H86.4464ZM86.4464 91.5539V79.6284H94.5243C99.2141 79.6284 101.454 82.0977 101.454 85.3519C101.454 89.142 98.3527 91.5539 94.3711 91.5539H86.4464Z" fill="white"/>
</svg>
