<svg width="263" height="148" viewBox="0 0 263 148" fill="none" xmlns="http://www.w3.org/2000/svg">
<path d="M191.681 110.455C185.656 110.455 180.755 105.554 180.755 99.5326C180.755 93.5113 185.656 88.6134 191.681 88.6134C197.705 88.6134 202.606 93.5113 202.606 99.5326C202.606 105.554 197.705 110.455 191.681 110.455ZM70.9185 110.455C64.8937 110.455 59.9933 105.554 59.9933 99.5326C59.9933 93.5113 64.8937 88.6134 70.9185 88.6134C76.943 88.6134 81.8436 93.5113 81.8436 99.5326C81.8436 105.554 76.943 110.455 70.9185 110.455ZM195.599 44.6782L217.435 6.8812C218.687 4.7087 217.942 1.93375 215.772 0.679161C213.602 -0.571879 210.822 0.172364 209.567 2.3413L187.457 40.6167C170.55 32.9049 151.561 28.6096 131.299 28.6096C111.038 28.6096 92.049 32.9049 75.1417 40.6167L53.0325 2.3413C51.7772 0.172364 48.9971 -0.571879 46.827 0.679161C44.6568 1.93375 43.9086 4.7087 45.1639 6.8812L67 44.6782C29.5047 65.0598 3.86015 102.999 0.108544 147.82H262.491C258.736 102.999 233.091 65.0598 195.599 44.6782Z" fill="white"/>
</svg>
