<svg width="322" height="322" viewBox="0 0 322 322" fill="none" xmlns="http://www.w3.org/2000/svg">
<circle cx="161" cy="161" r="161" fill="#1D1D1D"/>
<path d="M160.55 108.168C160.55 79.3309 143.292 61.8523 119.958 61.8523C96.5356 61.8523 79.3212 79.3309 79.3212 108.168C79.3212 136.962 96.5356 154.484 119.958 154.484C143.292 154.484 160.55 137.006 160.55 108.168ZM147.078 108.168C147.078 130.137 135.455 142.069 119.958 142.069C104.416 142.069 92.8374 130.137 92.8374 108.168C92.8374 86.199 104.416 74.2678 119.958 74.2678C135.455 74.2678 147.078 86.199 147.078 108.168ZM107.014 52.4747C111.417 52.4747 114.763 48.9086 114.763 44.8141C114.763 40.4555 111.417 37.1095 107.014 37.1095C102.875 37.1095 99.2212 40.4555 99.2212 44.8141C99.2212 48.9086 102.875 52.4747 107.014 52.4747ZM132.901 52.4747C137.304 52.4747 140.65 48.9086 140.65 44.8141C140.65 40.4555 137.304 37.1095 132.901 37.1095C128.763 37.1095 125.109 40.4555 125.109 44.8141C125.109 48.9086 128.763 52.4747 132.901 52.4747Z" fill="white"/>
<path d="M186.81 153.251H241.271V141.54H200.414V63.0851H186.81V153.251Z" fill="white"/>
<path d="M93.2874 261.733L101.564 237.87H136.786L145.019 261.733H159.459L127.012 171.566H111.294L78.8467 261.733H93.2874ZM105.527 226.423L118.823 187.944H119.527L132.823 226.423H105.527Z" fill="white"/>
<path d="M185.222 261.733H219.783C240.74 261.733 250.205 251.298 250.205 237.474C250.205 223.518 240.432 215.637 231.494 215.153V214.272C239.771 212.159 246.683 206.523 246.683 195.253C246.683 181.913 237.438 171.566 218.242 171.566H185.222V261.733ZM198.827 250.066V221.184H218.947C229.865 221.184 236.689 228.228 236.689 236.814C236.689 244.386 231.538 250.066 218.462 250.066H198.827ZM198.827 210.574V183.145H217.406C228.192 183.145 233.343 188.825 233.343 196.309C233.343 205.027 226.211 210.574 217.054 210.574H198.827Z" fill="white"/>
</svg>
